# xmcd
#
# Track frame offsets:
#	150
#	30576
#	47660
#	64817
#	98227
#	116558
#	137447
#	150924
#	164698
#	197448
#	214277
#	243824
#	257725
#	276632
#
# Disc length: 4328 seconds
#
# Revision: 1
# Processed by: cddbd v1.5.1PL0 Copyright (c) Steve Scherf et al.
# Submitted via: EasyCDDAExtractor 6.2.0.3
#
DISCID=c310e60e
DTITLE=Smak - Live
DYEAR=1900
DGENRE=
TTITLE0=Zajdi Zajdi
TTITLE1=Daire
TTITLE2=Mozda Imam Vremena
TTITLE3=Blues U Parku
TTITLE4=H-rizl
TTITLE5=Crna Dama
TTITLE6=Idi
TTITLE7=Lujka
TTITLE8=Sumadijski Blues
TTITLE9=Ljudi Nije Fer
TTITLE10=Kad Spavas Sam
TTITLE11=Lisica
TTITLE12=Padalica
TTITLE13=Solo Partija I Juzni Voz
EXTD=
EXTT0=
EXTT1=
EXTT2=
EXTT3=
EXTT4=
EXTT5=
EXTT6=
EXTT7=
EXTT8=
EXTT9=
EXTT10=
EXTT11=
EXTT12=
EXTT13=
PLAYORDER=
